HIERARCHY
ROOT reference
{
  OFFSET 0 0 0
  CHANNELS 6 Xposition Yposition Zposition Zrotation Xrotation Yrotation
  JOINT Hips
  {
    OFFSET 19.8941 91.4584 12.6699
    CHANNELS 3 Zrotation Xrotation Yrotation
    JOINT RightUpLeg
    {
      OFFSET -9.21136 -1.54315 -0.00338228
      CHANNELS 3 Zrotation Xrotation Yrotation
      JOINT RightLeg
      {
        OFFSET 0.100199 -41.8913 0.117885
        CHANNELS 3 Zrotation Xrotation Yrotation
        JOINT RightFoot
        {
          OFFSET -0.0312538 -39.9042 0.200326
          CHANNELS 3 Zrotation Xrotation Yrotation
          End Site
          {
            OFFSET 0 -7.69 17.5
          }
        }
      }
    }
    JOINT LeftUpLeg
    {
      OFFSET 9.2904 -1.6473 0.00344049
      CHANNELS 3 Zrotation Xrotation Yrotation
      JOINT LeftLeg
      {
        OFFSET 0.15381 -41.8817 -0.0541105
        CHANNELS 3 Zrotation Xrotation Yrotation
        JOINT LeftFoot
        {
          OFFSET 0.872932 -43.9846 -0.139608
          CHANNELS 3 Zrotation Xrotation Yrotation
          End Site
          {
            OFFSET 0 -7.69 17.5
          }
        }
      }
    }
    JOINT Spine
    {
      OFFSET 0.0768477 14.3139 0.027738
      CHANNELS 3 Zrotation Xrotation Yrotation
      JOINT Spine1
      {
        OFFSET -0.0133682 9.71866 0.00713354
        CHANNELS 3 Zrotation Xrotation Yrotation
        JOINT Spine2
        {
          OFFSET -0.0175262 10.1212 -0.00524987
          CHANNELS 3 Zrotation Xrotation Yrotation
          JOINT Spine3
          {
            OFFSET -0.00348171 9.71796 0.0104149
            CHANNELS 3 Zrotation Xrotation Yrotation
            JOINT Neck
            {
              OFFSET -0.0845439 10.3822 0.044921
              CHANNELS 3 Zrotation Xrotation Yrotation
              JOINT Head
              {
                OFFSET -0.0310878 9.44025 0.0694291
                CHANNELS 3 Zrotation Xrotation Yrotation
                End Site
                {
                  OFFSET 0 15.95 0
                }
              }
            }
            JOINT RightShoulder
            {
              OFFSET -3.20882 6.90619 -0.0326675
              CHANNELS 3 Zrotation Xrotation Yrotation
              JOINT RightArm
              {
                OFFSET -12.8514 -0.0142271 -0.0483735
                CHANNELS 3 Zrotation Xrotation Yrotation
                JOINT RightForeArm
                {
                  OFFSET -26.4475 -0.0994884 -0.035967
                  CHANNELS 3 Zrotation Xrotation Yrotation
                  JOINT RightHand
                  {
                    OFFSET -25.9226 -0.102631 -0.136889
                    CHANNELS 3 Zrotation Xrotation Yrotation
                    JOINT RightHandThumb1
                    {
                      OFFSET -2.48905 0.190105 3.12053
                      CHANNELS 3 Zrotation Xrotation Yrotation
                      JOINT RightHandThumb2
                      {
                        OFFSET -3.68274 0 0
                        CHANNELS 3 Zrotation Xrotation Yrotation
                        JOINT RightHandThumb3
                        {
                          OFFSET -2.55832 0 0
                          CHANNELS 3 Zrotation Xrotation Yrotation
                          End Site
                          {
                            OFFSET -2.194 0 0
                          }
                        }
                      }
                    }
                    JOINT RightInHandIndex
                    {
                      OFFSET -3.22368 0.508421 1.97842
                      CHANNELS 3 Zrotation Xrotation Yrotation
                      JOINT RightHandIndex1
                      {
                        OFFSET -5.21684 -0.091368 0.999158
                        CHANNELS 3 Zrotation Xrotation Yrotation
                        JOINT RightHandIndex2
                        {
                          OFFSET -3.61937 0 0
                          CHANNELS 3 Zrotation Xrotation Yrotation
                          JOINT RightHandIndex3
                          {
                            OFFSET -2.0521 0 0
                            CHANNELS 3 Zrotation Xrotation Yrotation
                            End Site
                            {
                              OFFSET -1.805 0 0
                            }
                          }
                        }
                      }
                    }
                    JOINT RightInHandMiddle
                    {
                      OFFSET -3.38211 0.517263 0.756737
                      CHANNELS 3 Zrotation Xrotation Yrotation
                      JOINT RightHandMiddle1
                      {
                        OFFSET -5.17411 -0.084 0.313895
                        CHANNELS 3 Zrotation Xrotation Yrotation
                        JOINT RightHandMiddle2
                        {
                          OFFSET -3.94947 0 0
                          CHANNELS 3 Zrotation Xrotation Yrotation
                          JOINT RightHandMiddle3
                          {
                            OFFSET -2.47579 0 0
                            CHANNELS 3 Zrotation Xrotation Yrotation
                            End Site
                            {
                              OFFSET -1.975 0 0
                            }
                          }
                        }
                      }
                    }
                    JOINT RightInHandRing
                    {
                      OFFSET -3.36516 0.537895 -0.128947
                      CHANNELS 3 Zrotation Xrotation Yrotation
                      JOINT RightHandRing1
                      {
                        OFFSET -4.63474 -0.022105 -0.478947
                        CHANNELS 3 Zrotation Xrotation Yrotation
                        JOINT RightHandRing2
                        {
                          OFFSET -3.44238 0 0
                          CHANNELS 3 Zrotation Xrotation Yrotation
                          JOINT RightHandRing3
                          {
                            OFFSET -2.3881 0 0
                            CHANNELS 3 Zrotation Xrotation Yrotation
                            End Site
                            {
                              OFFSET -1.857 0 0
                            }
                          }
                        }
                      }
                    }
                    JOINT RightInHandPinky
                    {
                      OFFSET -3.16105 0.469368 -1.20179
                      CHANNELS 3 Zrotation Xrotation Yrotation
                      JOINT RightHandPinky1
                      {
                        OFFSET -4.14105 -0.022105 -1.09053
                        CHANNELS 3 Zrotation Xrotation Yrotation
                        JOINT RightHandPinky2
                        {
                          OFFSET -2.75653 0 0
                          CHANNELS 3 Zrotation Xrotation Yrotation
                          JOINT RightHandPinky3
                          {
                            OFFSET -1.74189 0 0
                            CHANNELS 3 Zrotation Xrotation Yrotation
                            End Site
                            {
                              OFFSET -1.645 0 0
                            }
                          }
                        }
                      }
                    }
                  }
                }
              }
            }
            JOINT LeftShoulder
            {
              OFFSET 3.19355 6.9059 0.0487761
              CHANNELS 3 Zrotation Xrotation Yrotation
              JOINT LeftArm
              {
                OFFSET 12.7349 -0.00433124 -0.0458964
                CHANNELS 3 Zrotation Xrotation Yrotation
                JOINT LeftForeArm
                {
                  OFFSET 26.4064 -0.194468 0.00909971
                  CHANNELS 3 Zrotation Xrotation Yrotation
                  JOINT LeftHand
                  {
                    OFFSET 25.9027 0.0515579 -0.250056
                    CHANNELS 3 Zrotation Xrotation Yrotation
                    JOINT LeftHandThumb1
                    {
                      OFFSET 2.48905 0.190105 3.12053
                      CHANNELS 3 Zrotation Xrotation Yrotation
                      JOINT LeftHandThumb2
                      {
                        OFFSET 3.68274 0 0
                        CHANNELS 3 Zrotation Xrotation Yrotation
                        JOINT LeftHandThumb3
                        {
                          OFFSET 2.55832 0 0
                          CHANNELS 3 Zrotation Xrotation Yrotation
                          End Site
                          {
                            OFFSET 2.194 0 0
                          }
                        }
                      }
                    }
                    JOINT LeftInHandIndex
                    {
                      OFFSET 3.22368 0.508421 1.97842
                      CHANNELS 3 Zrotation Xrotation Yrotation
                      JOINT LeftHandIndex1
                      {
                        OFFSET 5.21684 -0.091368 0.999158
                        CHANNELS 3 Zrotation Xrotation Yrotation
                        JOINT LeftHandIndex2
                        {
                          OFFSET 3.61937 0 0
                          CHANNELS 3 Zrotation Xrotation Yrotation
                          JOINT LeftHandIndex3
                          {
                            OFFSET 2.0521 0 0
                            CHANNELS 3 Zrotation Xrotation Yrotation
                            End Site
                            {
                              OFFSET 1.805 0 0
                            }
                          }
                        }
                      }
                    }
                    JOINT LeftInHandMiddle
                    {
                      OFFSET 3.38211 0.517263 0.756737
                      CHANNELS 3 Zrotation Xrotation Yrotation
                      JOINT LeftHandMiddle1
                      {
                        OFFSET 5.17411 -0.084 0.313895
                        CHANNELS 3 Zrotation Xrotation Yrotation
                        JOINT LeftHandMiddle2
                        {
                          OFFSET 3.94947 0 0
                          CHANNELS 3 Zrotation Xrotation Yrotation
                          JOINT LeftHandMiddle3
                          {
                            OFFSET 2.47579 0 0
                            CHANNELS 3 Zrotation Xrotation Yrotation
                            End Site
                            {
                              OFFSET 1.975 0 0
                            }
                          }
                        }
                      }
                    }
                    JOINT LeftInHandRing
                    {
                      OFFSET 3.36516 0.537895 -0.128947
                      CHANNELS 3 Zrotation Xrotation Yrotation
                      JOINT LeftHandRing1
                      {
                        OFFSET 4.63474 -0.022105 -0.478947
                        CHANNELS 3 Zrotation Xrotation Yrotation
                        JOINT LeftHandRing2
                        {
                          OFFSET 3.44238 0 0
                          CHANNELS 3 Zrotation Xrotation Yrotation
                          JOINT LeftHandRing3
                          {
                            OFFSET 2.3881 0 0
                            CHANNELS 3 Zrotation Xrotation Yrotation
                            End Site
                            {
                              OFFSET 1.857 0 0
                            }
                          }
                        }
                      }
                    }
                    JOINT LeftInHandPinky
                    {
                      OFFSET 3.16105 0.469368 -1.20179
                      CHANNELS 3 Zrotation Xrotation Yrotation
                      JOINT LeftHandPinky1
                      {
                        OFFSET 4.14105 -0.022105 -1.09053
                        CHANNELS 3 Zrotation Xrotation Yrotation
                        JOINT LeftHandPinky2
                        {
                          OFFSET 2.75653 0 0
                          CHANNELS 3 Zrotation Xrotation Yrotation
                          JOINT LeftHandPinky3
                          {
                            OFFSET 1.74189 0 0
                            CHANNELS 3 Zrotation Xrotation Yrotation
                            End Site
                            {
                              OFFSET 1.645 0 0
                            }
                          }
                        }
                      }
                    }
                  }
                }
              }
            }
          }
        }
      }
    }
  }
}
MOTION
Frames: 2
Frame Time: 0.00416667
6.000000000000000000e+02 0.000000000000000000e+00 0.000000000000000000e+00 0.000000000000000000e+00 0.000000000000000000e+00 0.000000000000000000e+00 5.571436758488951951e-02 -2.778769968558403303e-01 -5.824563801862208123e-01 6.051196256477912039e-01 -2.775449143966778331e-01 8.041701461725953015e-01 6.721741200731026766e-02 -1.447069713971986249e-01 1.201276183518252411e-02 -8.493423751728236548e-02 1.890645565410258577e-01 1.056640607624897699e-01 3.703497127191279770e-01 1.629996365404976222e-01 5.823972925345122231e-01 2.485530670300016565e-02 -2.396618429805256745e-01 1.005079940037354735e-01 -1.216429650755022490e-01 -6.496400733799041760e-02 1.759848970911036814e-01 -1.398875426973244240e-01 4.590784945880914680e-01 6.443533215383482338e-01 -1.249150098505564209e-02 -1.459188249419971772e-01 1.513696970325261459e-01 -1.949258133963274742e-02 -3.996742807154611832e-01 2.235064113970219868e-01 -2.206714049759086679e-02 3.204692459121414455e-02 -1.726562402834684248e-02 -2.663672197940807063e-02 3.281044168130983069e-02 -1.869210424722807934e-02 -5.014815034011477213e-01 3.567640794393347470e-01 -3.730835977078203469e-01 9.619486242737950166e-01 1.689515005921199964e-01 1.412771116722909781e+00 -2.707852543804465828e+00 -1.693430025345958434e+00 1.185576074988746953e+00 -3.598277163712391769e+01 -5.951684673670602166e+00 -6.606860686809601191e+01 9.210380419935678686e-01 -6.157171554795446422e-01 -2.922471132904937985e-01 0.000000000000000000e+00 0.000000000000000000e+00 0.000000000000000000e+00 9.515462721637221359e-16 -1.421474591824576074e-16 0.000000000000000000e+00 2.089754824713794810e-16 -2.363103928448094613e-15 0.000000000000000000e+00 5.871191422029280186e-16 2.230309077949985602e-16 -4.120282777265727897e-15 0.000000000000000000e+00 0.000000000000000000e+00 0.000000000000000000e+00 0.000000000000000000e+00 -3.646000445329430089e-16 6.498751855821674958e-15 0.000000000000000000e+00 3.112552755957705990e-17 -9.380907494660065318e-16 5.871191422029280186e-16 2.230309077949985602e-16 -4.120282777265727897e-15 0.000000000000000000e+00 5.652662584153826931e-15 1.588580047386490036e-14 0.000000000000000000e+00 9.756567136947852209e-16 6.146055546586080124e-15 0.000000000000000000e+00 2.403994934548669148e-15 -8.143553844940079766e-16 5.871191422029280186e-16 2.230309077949985602e-16 -4.120282777265727897e-15 0.000000000000000000e+00 0.000000000000000000e+00 0.000000000000000000e+00 0.000000000000000000e+00 1.826084003955658555e-15 1.124212185489346138e-14 0.000000000000000000e+00 4.494330536369226372e-16 -3.493179423226512496e-16 5.871191422029280186e-16 2.230309077949985602e-16 -4.120282777265727897e-15 0.000000000000000000e+00 0.000000000000000000e+00 0.000000000000000000e+00 0.000000000000000000e+00 2.832353749478919979e-15 1.322734727166185576e-14 0.000000000000000000e+00 2.657938143871180961e-15 -7.980813862579586109e-16 1.530212691024051552e-01 -3.420896550342500397e-01 1.459311163814998480e+00 3.740738807098363261e-01 -2.590380892002853708e-01 -1.903005344748722738e+00 2.990019415946595593e+00 -6.543575794993961026e+00 4.292688634214767873e+00 4.084289832972382683e+00 -4.701458199489932932e-01 -4.171688976356222600e-01 0.000000000000000000e+00 0.000000000000000000e+00 0.000000000000000000e+00 2.975038451598370840e-15 -4.999509555902702942e-16 0.000000000000000000e+00 5.847579935153639994e-16 9.220191778596323110e-16 0.000000000000000000e+00 3.890473213394787670e-15 1.070792545666219488e-17 2.322490103528931374e-15 0.000000000000000000e+00 0.000000000000000000e+00 0.000000000000000000e+00 0.000000000000000000e+00 -2.729647896244805425e-16 -8.164398093110951125e-16 0.000000000000000000e+00 -6.207788338484556535e-15 -3.672073579259721760e-15 3.890473213394787670e-15 1.070792545666219488e-17 2.322490103528931374e-15 0.000000000000000000e+00 -5.860860269366963080e-15 -5.681751720712035481e-15 0.000000000000000000e+00 -4.068092331640013450e-17 -6.299427303368095654e-15 0.000000000000000000e+00 5.981497322070265416e-16 -1.008824771050870032e-15 3.890473213394787670e-15 1.070792545666219488e-17 2.322490103528931374e-15 0.000000000000000000e+00 0.000000000000000000e+00 0.000000000000000000e+00 0.000000000000000000e+00 1.984660859000726257e-15 2.249890220112069447e-15 0.000000000000000000e+00 -6.516261526454714360e-15 -5.619571443929625460e-16 3.890473213394787670e-15 1.070792545666219488e-17 2.322490103528931374e-15 0.000000000000000000e+00 0.000000000000000000e+00 0.000000000000000000e+00 0.000000000000000000e+00 -4.689905022842361123e-15 -5.794728390238541762e-15 0.000000000000000000e+00 -2.043060944283535166e-15 4.930712265050861800e-16
6.000000000000000000e+02 0.000000000000000000e+00 0.000000000000000000e+00 0.000000000000000000e+00 0.000000000000000000e+00 0.000000000000000000e+00 5.213578119520178439e-02 -2.790882091672685639e-01 -5.589287864181321508e-01 5.748431166318183072e-01 -2.699005076873242648e-01 7.770411399558584398e-01 6.328020774824720529e-02 -1.320753197100864307e-01 1.179983360678521845e-02 -8.507391814099007910e-02 1.784512625671372255e-01 9.983304338801900213e-02 3.466927164019498742e-01 1.574115506924458341e-01 5.618330711920914711e-01 2.263722374210284938e-02 -2.308139126039015221e-01 9.722612712523398537e-02 -1.184534181126844776e-01 -6.303878355322380111e-02 1.671455301012305383e-01 -1.403482845129184753e-01 4.491256243392032221e-01 6.632793052624766927e-01 -1.199718496245340271e-02 -1.442333200577627095e-01 1.569555133252900081e-01 -1.878226575481970959e-02 -3.969271684734238526e-01 2.324874823800160972e-01 -2.108104281524286402e-02 3.201486249082431679e-02 -1.957937958393304867e-02 -2.550983165010050138e-02 3.286185992896831221e-02 -2.099472669483283191e-02 -4.800629371762930586e-01 3.587223275696144742e-01 -4.139525345231322984e-01 9.240883871135326944e-01 1.615234267560287096e-01 1.383765603940633415e+00 -2.754971285507959777e+00 -1.606126763603161534e+00 1.255840878184067311e+00 -3.562941878861920486e+01 -5.805717972814880667e+00 -6.305442173431147523e+01 9.894949320157733208e-01 -5.606338620789372840e-01 -3.077269782293647338e-01 0.000000000000000000e+00 0.000000000000000000e+00 0.000000000000000000e+00 7.536292288645009139e-16 -7.755274137626031613e-17 0.000000000000000000e+00 1.079543559445868193e-16 -2.229994733532530286e-15 0.000000000000000000e+00 5.918816031381747391e-16 1.826877076359276464e-16 -4.009261747929765182e-15 0.000000000000000000e+00 0.000000000000000000e+00 0.000000000000000000e+00 0.000000000000000000e+00 -4.685134193747952612e-16 5.856448097115935066e-15 0.000000000000000000e+00 3.872465924689002717e-17 -9.738651113616868075e-16 5.918816031381747391e-16 1.826877076359276464e-16 -4.009261747929765182e-15 0.000000000000000000e+00 5.394350828596364439e-15 1.495843514918980143e-14 0.000000000000000000e+00 8.351527258516073697e-16 5.585189423537400259e-15 0.000000000000000000e+00 2.331214451947304581e-15 -5.841064693049407543e-16 5.918816031381747391e-16 1.826877076359276464e-16 -4.009261747929765182e-15 0.000000000000000000e+00 0.000000000000000000e+00 0.000000000000000000e+00 0.000000000000000000e+00 1.751562090926655604e-15 1.067385777299765868e-14 0.000000000000000000e+00 4.299076727521580999e-16 -3.463037413918548351e-16 5.918816031381747391e-16 1.826877076359276464e-16 -4.009261747929765182e-15 0.000000000000000000e+00 0.000000000000000000e+00 0.000000000000000000e+00 0.000000000000000000e+00 2.827930531671277249e-15 1.292365380641950252e-14 0.000000000000000000e+00 2.552045952136546206e-15 -7.239111724994531706e-16 1.596514585747176307e-01 -3.083417772384176025e-01 1.442248666043056016e+00 2.089910314589729090e-01 -2.224835849507414420e-01 -1.657462014527042227e+00 2.680676105963072153e+00 -6.648279756730728351e+00 3.836972997759710235e+00 4.055466341659771601e+00 -4.946119289347394865e-01 -4.665996708156707751e-01 0.000000000000000000e+00 0.000000000000000000e+00 0.000000000000000000e+00 2.888746621974173000e-15 -5.588080284197690816e-16 0.000000000000000000e+00 6.692318549201006092e-16 8.480820682153276204e-16 0.000000000000000000e+00 3.722290880730898388e-15 -2.886575835055450039e-18 2.237361122302772081e-15 0.000000000000000000e+00 0.000000000000000000e+00 0.000000000000000000e+00 0.000000000000000000e+00 -2.623145377011565115e-16 -8.665285064060643703e-16 0.000000000000000000e+00 -6.033949117626189270e-15 -3.642828133297083215e-15 3.722290880730898388e-15 -2.886575835055450039e-18 2.237361122302772081e-15 0.000000000000000000e+00 -5.627022177221373221e-15 -5.590046543648278179e-15 0.000000000000000000e+00 -4.530283817289446791e-17 -6.013147319291406470e-15 0.000000000000000000e+00 6.072594341330817362e-16 -1.002831756914710417e-15 3.722290880730898388e-15 -2.886575835055450039e-18 2.237361122302772081e-15 0.000000000000000000e+00 0.000000000000000000e+00 0.000000000000000000e+00 0.000000000000000000e+00 1.969387883031051129e-15 2.121459797598436825e-15 0.000000000000000000e+00 -6.256373417898026979e-15 -5.964556292934392085e-16 3.722290880730898388e-15 -2.886575835055450039e-18 2.237361122302772081e-15 0.000000000000000000e+00 0.000000000000000000e+00 0.000000000000000000e+00 0.000000000000000000e+00 -4.500636514091791083e-15 -5.727089997005629688e-15 0.000000000000000000e+00 -2.025499582648454900e-15 4.779327235565556870e-16
